<svg xmlns="http://www.w3.org/2000/svg" width="1400" height="360" viewBox="0 0 1400 360" role="img" aria-label="Carpintería Ibarra Picado">
  <defs>
    <linearGradient id="woodGrad" x1="0" y1="0" x2="1" y2="1">
      <stop offset="0%" stop-color="#E6D3B1"/>
      <stop offset="45%" stop-color="#C89A5B"/>
      <stop offset="100%" stop-color="#8B5E34"/>
    </linearGradient>
    <linearGradient id="darkWood" x1="0" y1="0" x2="1" y2="1">
      <stop offset="0%" stop-color="#4A2E20"/>
      <stop offset="100%" stop-color="#8B5E34"/>
    </linearGradient>
    <filter id="softShadow" x="-20%" y="-20%" width="140%" height="140%">
      <feDropShadow dx="0" dy="6" stdDeviation="6" flood-color="#000000" flood-opacity="0.20"/>
    </filter>
  </defs>

  <rect width="100%" height="100%" fill="none"/>
  
  <g transform="translate(70,54) scale(1.12)">
    <path d="M110 14 L196 58 L196 174 L110 218 L24 174 L24 58 Z" fill="none" stroke="#4A2E20" stroke-width="12" stroke-linejoin="round"/>
    <path d="M48 70 L104 38 L104 196 L48 165 Z" fill="#E6D3B1" opacity="0.95"/>
    <path d="M116 40 L174 70 L174 166 L116 196 Z" fill="#8B5E34" opacity="0.98"/>
    <path d="M128 78 L160 94 L160 119 L128 105 Z" fill="#C89A5B" opacity="0.9"/>
    <path d="M128 126 L160 139 L160 162 L128 150 Z" fill="#C89A5B" opacity="0.9"/>
    <rect x="132" y="92" width="30" height="5" rx="2.5" fill="#F7F4EF" opacity="0.9"/>
    <rect x="132" y="143" width="30" height="5" rx="2.5" fill="#F7F4EF" opacity="0.9"/>
    <path d="M47 70 L104 38 L104 196 L47 165 Z" fill="none" stroke="#4A2E20" stroke-width="5" opacity="0.45"/>
    <path d="M116 40 L174 70 L174 166 L116 196 Z" fill="none" stroke="#4A2E20" stroke-width="5" opacity="0.45"/>
    <path d="M38 59 L110 22 L185 60" fill="none" stroke="#E6D3B1" stroke-width="8" stroke-linecap="round"/>
  </g>
  <line x1="360" y1="74" x2="360" y2="286" stroke="#E6D3B1" stroke-width="5"/>
  <text x="410" y="155" font-family="Georgia, 'Times New Roman', serif" font-size="82" font-weight="700" fill="#4A2E20">Carpintería</text>
  <text x="414" y="245" font-family="Montserrat, Arial, sans-serif" font-size="45" letter-spacing="14" fill="#8B5E34">IBARRA PICADO</text>
</svg>