<?xml version="1.0" encoding="UTF-8" standalone="no"?>
<svg
   width="64"
   height="64"
   viewBox="0 0 64 64"
   role="img"
   aria-label="Riquiquísimo favicon"
   version="1.1"
   id="svg2"
   xmlns="http://www.w3.org/2000/svg"
   xmlns:svg="http://www.w3.org/2000/svg">
  <defs
     id="defs1">
    <style
       id="style1">
      .mark { font-family: 'Noto Serif Display', 'Georgia', serif; font-weight: 900; font-style: italic; letter-spacing: -3px; }
    </style>
  </defs>
  <rect
     x="3"
     y="3"
     width="58"
     height="58"
     rx="15"
     fill="#FFF6F6"
     id="rect1" />
  <path
     d="M17 17 C23 10, 41 10, 47 17"
     fill="none"
     stroke="#F48CAA"
     stroke-width="4"
     stroke-linecap="round"
     id="path1" />
  <path
     d="M21 22 C26 17, 38 17, 43 22"
     fill="none"
     stroke="#FDE1E6"
     stroke-width="3"
     stroke-linecap="round"
     id="path2" />
  <path
     d="m 10.400522,47 0.054,-0.27 h 0.351 q 0.837,0 1.539,-0.27 0.702,-0.297 0.891,-1.215 l 3.24,-15.417 q 0.189,-0.945 0.189,-1.026 0,-0.54 -0.54,-0.675 -0.54,-0.135 -1.404,-0.135 h -0.351 l 0.081,-0.27 h 9.828 q 6.615,0 6.615,4.455 0,1.35 -0.486,2.322 -0.459,0.945 -1.242,1.593 -0.756,0.621 -1.647,1.026 -0.864,0.378 -1.674,0.567 l 2.349,5.832 q 0.513,1.269 0.81,1.971 0.297,0.702 0.594,0.972 0.324,0.27 0.81,0.27 h 0.162 l -0.054,0.27 h -0.972 q -2.025,0 -3.429,-0.243 -1.404,-0.243 -2.295,-1.053 -0.864,-0.81 -1.323,-2.457 l -1.458,-5.454 h -0.891 l -1.431,6.804 q -0.108,0.594 -0.189,0.891 -0.054,0.297 -0.054,0.432 0,0.513 0.567,0.675 0.594,0.135 1.431,0.135 h 0.891 l -0.081,0.27 z m 10.557,-9.477 q 1.917,0 2.997,-1.35 1.08,-1.377 1.08,-4.185 0,-2.214 -0.513,-3.105 -0.486,-0.891 -1.512,-0.891 h -0.729 l -2.133,9.531 z M 41.933501,53.48 q -1.026,0 -2.052,-0.27 -1.026,-0.27 -1.917,-0.972 -0.864,-0.702 -1.458,-1.971 -0.567,-1.269 -0.675,-3.24 -2.538,-0.621 -4.023,-2.592 -1.458,-1.998 -1.458,-5.535 0,-1.431 0.378,-3.024 0.405,-1.593 1.269,-3.078 0.864,-1.512 2.241,-2.727 1.404,-1.215 3.402,-1.917 2.025,-0.729 4.725,-0.729 2.214,0 3.969,0.81 1.782,0.783 2.808,2.484 1.026,1.701 1.026,4.455 0,1.512 -0.459,3.321 -0.432,1.782 -1.431,3.51 -0.972,1.728 -2.646,3.051 -1.647,1.323 -4.077,1.89 0.189,2.025 0.486,3.213 0.297,1.188 0.648,1.728 0.378,0.567 0.783,0.729 0.405,0.162 0.783,0.162 0.135,0 0.243,-0.027 0.108,0 0.216,-0.027 l 0.054,0.27 q -0.837,0.324 -1.485,0.405 -0.648,0.081 -1.35,0.081 z m -3.078,-6.453 q 1.485,0 2.592,-1.053 1.107,-1.08 1.836,-2.943 0.756,-1.863 1.107,-4.239 0.378,-2.403 0.378,-5.022 0,-3.375 -0.621,-4.725 -0.621,-1.35 -2.052,-1.35 -1.89,0 -3.321,1.62 -1.404,1.593 -2.187,4.509 -0.756,2.889 -0.756,6.831 0,3.24 0.783,4.806 0.783,1.566 2.241,1.566 z"
     id="text2"
     class="mark"
     style="font-style:italic;font-weight:900;font-size:27px;font-family:'Noto Serif Display', Georgia, serif;letter-spacing:-3px;text-anchor:middle;fill:#b83e6c;stroke:#8b2e54;stroke-width:0.15;paint-order:stroke fill"
     aria-label="RQ" />
</svg>
