<?xml version="1.0" encoding="UTF-8" standalone="no"?>
<svg
   width="1200"
   height="320"
   viewBox="0 0 1200 320"
   role="img"
   aria-labelledby="title desc"
   version="1.1"
   id="svg6"
   xmlns="http://www.w3.org/2000/svg"
   xmlns:svg="http://www.w3.org/2000/svg">
  <title
     id="title">Riquiquísimo - logo horizontal</title>
  <desc
     id="desc">Logo horizontal compacto para barra superior, sidebar y cabecera de aplicación.</desc>
  <defs
     id="defs1">
    <style
       id="style1">
      .mark { font-family: 'Noto Serif Display', 'Georgia', serif; font-weight: 900; font-style: italic; letter-spacing: -12px; }
      .wordmark { font-family: 'Noto Serif Display', 'Georgia', serif; font-weight: 900; font-style: italic; letter-spacing: -5px; }
      .tagline { font-family: 'Inter', 'Lato', Arial, sans-serif; font-weight: 700; letter-spacing: 5px; }
    </style>
  </defs>
  <rect
     x="34"
     y="50"
     width="220"
     height="220"
     rx="58"
     fill="#FFF6F6"
     id="rect1" />
  <path
     d="M92 105 C118 74, 170 74, 196 105"
     fill="none"
     stroke="#F48CAA"
     stroke-width="12"
     stroke-linecap="round"
     id="path1" />
  <path
     d="M107 127 C129 104, 159 104, 181 127"
     fill="none"
     stroke="#FDE1E6"
     stroke-width="10"
     stroke-linecap="round"
     id="path2" />
  <path
     d="m 47.506103,215 0.248,-1.24 h 1.612 q 3.844,0 7.068,-1.24 3.224,-1.364 4.092,-5.58 l 14.88,-70.804 q 0.868,-4.34 0.868,-4.712 0,-2.48 -2.48,-3.1 -2.48,-0.62 -6.448,-0.62 h -1.612 l 0.372,-1.24 H 111.2421 q 30.38,0 30.38,20.46 0,6.2 -2.232,10.664 -2.108,4.34 -5.704,7.316 -3.472,2.852 -7.564,4.712 -3.968,1.736 -7.688,2.604 l 10.788,26.784 q 2.356,5.828 3.72,9.052 1.364,3.224 2.728,4.464 1.488,1.24 3.72,1.24 h 0.744 l -0.248,1.24 h -4.464 q -9.3,0 -15.748,-1.116 -6.448,-1.116 -10.54,-4.836 -3.968,-3.72 -6.076,-11.284 l -6.695997,-25.048 h -4.092 l -6.572,31.248 q -0.496,2.728 -0.868,4.092 -0.248,1.364 -0.248,1.984 0,2.356 2.604,3.1 2.728,0.62 6.572,0.62 h 4.092 l -0.372,1.24 z m 48.484,-43.524 q 8.803997,0 13.763997,-6.2 4.96,-6.324 4.96,-19.22 0,-10.168 -2.356,-14.26 -2.232,-4.092 -6.944,-4.092 h -3.348 l -9.795997,43.772 z M 194.102,244.76 q -4.712,0 -9.424,-1.24 -4.712,-1.24 -8.804,-4.464 -3.968,-3.224 -6.696,-9.052 -2.604,-5.828 -3.1,-14.88 -11.656,-2.852 -18.476,-11.904 -6.696,-9.176 -6.696,-25.42 0,-6.572 1.736,-13.888 1.86,-7.316 5.828,-14.136 3.968,-6.944 10.292,-12.524 6.448,-5.58 15.624,-8.804 9.3,-3.348 21.7,-3.348 10.168,0 18.228,3.72 8.184,3.596 12.896,11.408 4.712,7.812 4.712,20.46 0,6.944 -2.108,15.252 -1.984,8.184 -6.572,16.12 -4.464,7.936 -12.152,14.012 -7.564,6.076 -18.724,8.68 0.868,9.3 2.232,14.756 1.364,5.456 2.976,7.936 1.736,2.604 3.596,3.348 1.86,0.744 3.596,0.744 0.62,0 1.116,-0.124 0.496,0 0.992,-0.124 l 0.248,1.24 q -3.844,1.488 -6.82,1.86 -2.976,0.372 -6.2,0.372 z m -14.136,-29.636 q 6.82,0 11.904,-4.836 5.084,-4.96 8.432,-13.516 3.472,-8.556 5.084,-19.468 1.736,-11.036 1.736,-23.064 0,-15.5 -2.852,-21.7 -2.852,-6.2 -9.424,-6.2 -8.68,0 -15.252,7.44 -6.448,7.316 -10.044,20.708 -3.472,13.268 -3.472,31.372 0,14.88 3.596,22.072 3.596,7.192 10.292,7.192 z"
     id="text2"
     class="mark"
     style="font-style:italic;font-weight:900;font-size:124px;font-family:'Noto Serif Display', Georgia, serif;letter-spacing:-12px;text-anchor:middle;fill:#b83e6c;stroke:#8b2e54;stroke-width:0.8;paint-order:stroke fill"
     aria-label="RQ" />
  <path
     d="M520 80 C600 25, 785 25, 865 80"
     fill="none"
     stroke="#F48CAA"
     stroke-width="18"
     stroke-linecap="round"
     id="path3" />
  <path
     d="M565 108 C625 68, 760 68, 820 108"
     fill="none"
     stroke="#FDE1E6"
     stroke-width="15"
     stroke-linecap="round"
     id="path4" />
  <circle
     cx="490"
     cy="112"
     r="15"
     fill="#F48CAA"
     id="circle4" />
  <circle
     cx="895"
     cy="112"
     r="15"
     fill="#F48CAA"
     id="circle5" />
  <path
     d="m 295.648,205 0.256,-1.28 h 1.664 q 3.968,0 7.296,-1.28 3.328,-1.408 4.224,-5.76 l 15.36,-73.088 q 0.896,-4.48 0.896,-4.864 0,-2.56 -2.56,-3.2 -2.56,-0.64 -6.656,-0.64 h -1.664 l 0.384,-1.28 h 46.592 q 31.36,0 31.36,21.12 0,6.4 -2.304,11.008 -2.176,4.48 -5.888,7.552 -3.584,2.944 -7.808,4.864 -4.096,1.792 -7.936,2.688 L 380,188.488 q 2.432,6.016 3.84,9.344 1.408,3.328 2.816,4.608 1.536,1.28 3.84,1.28 h 0.768 L 391.008,205 H 386.4 q -9.6,0 -16.256,-1.152 -6.656,-1.152 -10.88,-4.992 -4.096,-3.84 -6.272,-11.648 l -6.912,-25.856 h -4.224 l -6.784,32.256 q -0.512,2.816 -0.896,4.224 -0.256,1.408 -0.256,2.048 0,2.432 2.688,3.2 2.816,0.64 6.784,0.64 h 4.224 l -0.384,1.28 z m 50.048,-44.928 q 9.088,0 14.208,-6.4 5.12,-6.528 5.12,-19.84 0,-10.496 -2.432,-14.72 -2.304,-4.224 -7.168,-4.224 h -3.456 l -10.112,45.184 z m 79.09596,-34.304 q -4.48,0 -7.68,-2.048 -3.072,-2.176 -3.072,-6.528 0,-4.48 1.92,-7.04 1.92,-2.56 4.992,-3.584 3.072,-1.024 6.4,-1.024 4.352,0 7.68,2.048 3.456,1.92 3.456,6.784 0,5.504 -4.224,8.448 -4.224,2.944 -9.472,2.944 z m -4.608,80.512 q -8.96,0 -13.824,-3.456 -4.864,-3.456 -4.864,-10.496 0,-1.792 0.384,-4.992 0.384,-3.2 1.664,-9.216 l 5.632,-27.904 q 0.512,-2.176 0.768,-4.224 0.384,-2.176 0.384,-4.096 0,-2.304 -1.152,-3.2 -1.024,-1.024 -4.736,-1.024 h -2.816 l 0.256,-1.28 h 35.584 l -10.752,50.048 q -0.896,3.84 -1.408,6.784 -0.384,2.816 -0.256,4.736 0.128,4.352 4.608,4.352 2.944,0 5.888,-2.304 2.944,-2.304 4.992,-4.608 l 0.896,1.152 q -3.2,3.84 -7.936,6.784 -4.608,2.944 -13.312,2.944 z m 62.45599,3.84 q 0.64,-2.944 1.408,-7.04 0.896,-4.224 1.792,-8.448 0.896,-4.224 1.536,-7.552 0.768,-3.456 1.152,-4.992 h -0.768 q -3.072,9.728 -6.912,14.976 -3.84,5.248 -8.448,7.296 -4.608,1.92 -10.24,1.92 -7.296,0 -11.776,-3.328 -4.48,-3.328 -6.528,-8.704 -2.048,-5.376 -2.048,-11.392 0,-5.504 1.408,-11.904 1.536,-6.4 4.48,-12.672 3.072,-6.4 7.936,-11.648 4.864,-5.248 11.648,-8.32 6.784,-3.2 15.616,-3.2 6.4,0 9.728,1.152 3.328,1.024 5.76,2.432 l 14.208,-3.584 h 7.808 l -18.688,88.96 q -0.384,1.664 -0.768,3.328 -0.256,1.792 -0.256,2.816 0,4.096 5.504,4.096 h 6.144 l -0.256,1.408 h -34.56 z m -10.112,-9.216 q 3.328,0 6.4,-3.584 3.072,-3.712 5.504,-9.984 2.56,-6.4 4.224,-14.336 l 6.912,-33.536 q -2.816,-2.432 -6.912,-2.432 -4.352,0 -7.936,3.072 -3.584,3.072 -6.4,8.448 -2.688,5.248 -4.608,11.904 -1.792,6.528 -2.816,13.568 -0.896,7.04 -0.896,13.568 0,7.68 1.792,10.496 1.792,2.816 4.736,2.816 z m 114.29604,5.376 q -7.04,0 -10.88,-1.664 -3.84,-1.664 -5.376,-4.352 -1.408,-2.688 -1.408,-5.888 0,-0.768 0.256,-3.072 0.256,-2.432 0.64,-4.736 0.384,-2.432 0.512,-3.072 h -1.024 q -3.968,12.416 -11.264,17.536 -7.168,5.12 -16.64,5.12 -5.76,0 -9.088,-1.92 -3.328,-2.048 -4.736,-5.248 -1.408,-3.328 -1.408,-7.04 0,-3.2 0.768,-7.04 0.768,-3.84 1.28,-7.04 l 5.504,-29.184 q 0.64,-3.2 0.896,-4.864 0.256,-1.664 0.256,-2.688 0,-1.792 -0.768,-2.56 -0.768,-0.896 -4.48,-0.896 h -3.2 l 0.256,-1.28 h 34.688 l -9.984,47.104 q -0.768,3.584 -1.28,6.784 -0.384,3.2 -0.384,5.376 0,4.864 4.352,4.864 3.456,0 6.656,-3.456 3.2,-3.584 5.76,-9.344 2.688,-5.888 4.096,-12.672 l 8.576,-38.656 h 24.832 l -11.136,51.712 q -1.28,5.632 -1.28,9.856 0,4.992 4.224,4.992 2.944,0 6.528,-2.432 3.712,-2.432 6.016,-5.248 l 0.768,0.896 q -3.328,3.84 -8.448,7.04 -5.12,3.072 -14.08,3.072 z m 50.55195,-80.512 q -4.48,0 -7.68,-2.048 -3.072,-2.176 -3.072,-6.528 0,-4.48 1.92,-7.04 1.92,-2.56 4.992,-3.584 3.072,-1.024 6.4,-1.024 4.352,0 7.68,2.048 3.456,1.92 3.456,6.784 0,5.504 -4.224,8.448 -4.224,2.944 -9.472,2.944 z m -4.608,80.512 q -8.96,0 -13.824,-3.456 -4.864,-3.456 -4.864,-10.496 0,-1.792 0.384,-4.992 0.384,-3.2 1.664,-9.216 l 5.632,-27.904 q 0.512,-2.176 0.768,-4.224 0.384,-2.176 0.384,-4.096 0,-2.304 -1.152,-3.2 -1.024,-1.024 -4.736,-1.024 h -2.816 l 0.256,-1.28 h 35.584 l -10.752,50.048 q -0.896,3.84 -1.408,6.784 -0.384,2.816 -0.256,4.736 0.128,4.352 4.608,4.352 2.944,0 5.888,-2.304 2.944,-2.304 4.992,-4.608 l 0.896,1.152 q -3.2,3.84 -7.936,6.784 -4.608,2.944 -13.312,2.944 z m 62.45599,3.84 q 0.64,-2.944 1.408,-7.04 0.896,-4.224 1.792,-8.448 0.896,-4.224 1.536,-7.552 0.768,-3.456 1.152,-4.992 h -0.768 q -3.072,9.728 -6.912,14.976 -3.84,5.248 -8.448,7.296 -4.608,1.92 -10.24,1.92 -7.296,0 -11.776,-3.328 -4.48,-3.328 -6.528,-8.704 -2.048,-5.376 -2.048,-11.392 0,-5.504 1.408,-11.904 1.536,-6.4 4.48,-12.672 3.072,-6.4 7.936,-11.648 4.864,-5.248 11.648,-8.32 6.784,-3.2 15.616,-3.2 6.4,0 9.728,1.152 3.328,1.024 5.76,2.432 l 14.208,-3.584 h 7.808 l -18.688,88.96 q -0.384,1.664 -0.768,3.328 -0.256,1.792 -0.256,2.816 0,4.096 5.504,4.096 h 6.144 l -0.256,1.408 h -34.56 z m -10.112,-9.216 q 3.328,0 6.4,-3.584 3.072,-3.712 5.504,-9.984 2.56,-6.4 4.224,-14.336 l 6.912,-33.536 q -2.816,-2.432 -6.912,-2.432 -4.352,0 -7.936,3.072 -3.584,3.072 -6.4,8.448 -2.688,5.248 -4.608,11.904 -1.792,6.528 -2.816,13.568 -0.896,7.04 -0.896,13.568 0,7.68 1.792,10.496 1.792,2.816 4.736,2.816 z m 114.29605,5.376 q -7.04,0 -10.88,-1.664 -3.84,-1.664 -5.376,-4.352 -1.408,-2.688 -1.408,-5.888 0,-0.768 0.256,-3.072 0.256,-2.432 0.64,-4.736 0.384,-2.432 0.512,-3.072 h -1.024 q -3.968,12.416 -11.264,17.536 -7.168,5.12 -16.64,5.12 -5.76,0 -9.088,-1.92 -3.328,-2.048 -4.736,-5.248 -1.408,-3.328 -1.408,-7.04 0,-3.2 0.768,-7.04 0.768,-3.84 1.28,-7.04 l 5.504,-29.184 q 0.64,-3.2 0.896,-4.864 0.256,-1.664 0.256,-2.688 0,-1.792 -0.768,-2.56 -0.768,-0.896 -4.48,-0.896 h -3.2 l 0.256,-1.28 h 34.688 l -9.984,47.104 q -0.768,3.584 -1.28,6.784 -0.384,3.2 -0.384,5.376 0,4.864 4.352,4.864 3.456,0 6.656,-3.456 3.2,-3.584 5.76,-9.344 2.688,-5.888 4.096,-12.672 l 8.576,-38.656 h 24.832 l -11.136,51.712 q -1.28,5.632 -1.28,9.856 0,4.992 4.224,4.992 2.944,0 6.528,-2.432 3.712,-2.432 6.016,-5.248 l 0.768,0.896 q -3.328,3.84 -8.448,7.04 -5.12,3.072 -14.08,3.072 z m 45.55994,0 q -8.96,0 -13.824,-3.456 -4.864,-3.456 -4.864,-10.496 0,-1.792 0.384,-4.992 0.384,-3.2 1.664,-9.216 l 5.632,-27.904 q 0.512,-2.176 0.768,-4.224 0.384,-2.176 0.384,-4.096 0,-2.304 -1.152,-3.2 -1.024,-1.024 -4.736,-1.024 h -2.816 l 0.256,-1.28 h 35.584 l -10.752,50.048 q -0.896,3.84 -1.408,6.784 -0.384,2.816 -0.256,4.736 0.128,4.352 4.608,4.352 2.944,0 5.888,-2.304 2.944,-2.304 4.992,-4.608 l 0.896,1.152 q -3.2,3.84 -7.936,6.784 -4.608,2.944 -13.312,2.944 z m -4.608,-78.592 q 2.432,-2.432 5.248,-5.888 2.816,-3.584 5.504,-7.168 2.688,-3.712 4.736,-6.4 h 20.608 l -0.384,1.28 q -1.536,1.408 -5.504,3.968 -3.968,2.56 -9.216,5.504 -5.12,2.944 -10.496,5.632 -5.248,2.56 -9.344,4.096 h -1.408 z m 50.68007,78.592 q -12.8,0 -19.712,-3.584 -6.784,-3.712 -6.784,-10.24 0,-6.528 4.608,-9.6 4.608,-3.072 13.184,-3.072 -0.128,1.664 -0.256,3.2 0,1.408 0,2.816 0,7.296 1.792,11.52 1.792,4.224 4.864,6.016 3.2,1.664 6.912,1.664 4.864,0 7.808,-3.072 3.072,-3.072 3.072,-8.064 0,-3.712 -1.152,-6.144 -1.024,-2.432 -4.352,-4.608 -3.328,-2.304 -9.856,-5.12 -9.344,-4.096 -14.208,-9.216 -4.736,-5.12 -4.736,-12.416 0,-10.24 8.448,-15.744 8.576,-5.504 23.552,-5.504 10.368,0 16,1.664 5.632,1.536 7.808,4.224 2.176,2.688 2.176,6.016 0,5.888 -4.992,8.448 -4.864,2.56 -13.568,2.56 0.256,-2.176 0.384,-4.096 0.128,-2.048 0.128,-3.84 0,-6.912 -2.304,-10.24 -2.176,-3.456 -7.168,-3.456 -4.096,0 -7.424,3.072 -3.2,3.072 -3.2,8.32 0,2.816 1.024,4.864 1.024,1.92 4.224,3.968 3.2,2.048 9.728,4.992 7.168,3.2 11.136,6.528 3.968,3.2 5.632,6.784 1.664,3.584 1.664,8.192 0,6.656 -3.712,11.904 -3.712,5.12 -11.392,8.192 -7.552,3.072 -19.328,3.072 z m 69.11207,-80.512 q -4.48,0 -7.68,-2.048 -3.072,-2.176 -3.072,-6.528 0,-4.48 1.92,-7.04 1.92,-2.56 4.992,-3.584 3.072,-1.024 6.4,-1.024 4.352,0 7.68,2.048 3.456,1.92 3.456,6.784 0,5.504 -4.224,8.448 -4.224,2.944 -9.472,2.944 z m -4.608,80.512 q -8.96,0 -13.824,-3.456 -4.864,-3.456 -4.864,-10.496 0,-1.792 0.384,-4.992 0.384,-3.2 1.664,-9.216 l 5.632,-27.904 q 0.512,-2.176 0.768,-4.224 0.384,-2.176 0.384,-4.096 0,-2.304 -1.152,-3.2 -1.024,-1.024 -4.736,-1.024 h -2.816 l 0.256,-1.28 h 35.584 l -10.752,50.048 q -0.896,3.84 -1.408,6.784 -0.384,2.816 -0.256,4.736 0.128,4.352 4.608,4.352 2.944,0 5.888,-2.304 2.944,-2.304 4.992,-4.608 l 0.896,1.152 q -3.2,3.84 -7.936,6.784 -4.608,2.944 -13.312,2.944 z m 124.15204,-0.256 q -8.576,0 -13.312,-3.584 -4.608,-3.584 -4.608,-10.88 0,-2.56 0.384,-5.504 0.512,-3.072 1.408,-7.296 l 4.224,-18.432 q 0.64,-2.56 1.28,-6.912 0.768,-4.352 0.768,-7.296 0,-2.304 -0.512,-4.48 -0.384,-2.176 -2.56,-2.176 -2.816,0 -5.248,2.688 -2.432,2.56 -4.48,6.656 -2.048,4.096 -3.584,8.704 -1.408,4.608 -2.432,8.704 l -3.328,14.464 q -0.896,4.352 -1.664,11.264 -0.768,6.784 -1.28,13.056 h -25.6 q 0.512,-4.352 1.28,-9.472 0.768,-5.12 1.664,-10.112 1.024,-4.992 1.92,-8.832 l 3.968,-16.128 q 1.408,-6.016 1.664,-9.984 0.256,-4.096 0.256,-4.736 0,-2.176 -0.64,-3.84 -0.512,-1.792 -2.304,-1.792 -3.456,0 -6.4,3.712 -2.944,3.584 -5.248,9.344 -2.304,5.76 -3.84,12.288 l -9.6,39.552 h -24.57605 l 12.032,-57.088 q 0.256,-1.536 0.64,-3.2 0.384,-1.792 0.384,-3.2 0,-2.176 -1.024,-2.944 -1.024,-0.896 -4.224,-0.896 h -3.2 l 0.128,-1.28 h 33.92005 l -1.792,15.232 h 0.384 q 3.2,-7.424 7.04,-10.88 3.84,-3.584 8.192,-4.608 4.352,-1.024 8.832,-1.024 8.064,0 11.264,3.968 3.328,3.84 3.712,10.112 v 3.328 h 0.384 q 2.56,-6.656 5.632,-10.368 3.072,-3.84 7.552,-5.376 4.608,-1.664 11.392,-1.664 5.888,0 9.088,2.176 3.328,2.048 4.736,5.376 1.408,3.2 1.408,6.784 0,3.328 -0.896,7.296 -0.768,3.968 -1.408,7.424 l -4.352,21.376 q -0.64,3.328 -1.28,6.144 -0.64,2.688 -0.64,5.248 0,2.944 1.28,4.224 1.28,1.28 3.328,1.28 2.432,0 4.608,-1.28 2.304,-1.408 4.096,-3.072 1.92,-1.664 2.944,-2.816 l 0.768,1.024 q -3.072,3.712 -8.448,6.784 -5.248,2.944 -14.08,2.944 z m 54.3918,0.256 q -14.08,0 -22.4,-6.784 -8.32,-6.912 -8.32,-21.12 0,-4.864 1.28,-10.624 1.408,-5.76 4.48,-11.52 3.2,-5.76 8.32,-10.496 5.248,-4.864 12.8,-7.68 7.552,-2.944 17.92,-2.944 7.808,0 14.208,2.816 6.528,2.816 10.368,8.832 3.968,6.016 3.968,15.744 0,4.736 -1.28,10.624 -1.28,5.76 -4.224,11.648 -2.944,5.76 -7.936,10.752 -4.864,4.864 -12.16,7.808 -7.168,2.944 -17.024,2.944 z m 0.768,-1.28 q 3.584,0 6.4,-3.712 2.816,-3.712 4.992,-9.728 2.176,-6.016 3.584,-13.056 1.536,-7.168 2.176,-14.08 0.768,-6.912 0.768,-12.16 0,-9.216 -1.28,-12.544 -1.152,-3.328 -4.736,-3.328 -3.584,0 -6.528,3.328 -2.944,3.328 -5.376,9.088 -2.304,5.632 -3.968,12.544 -1.664,6.912 -2.56,14.208 -0.768,7.168 -0.768,13.696 0,8.832 1.792,12.288 1.792,3.456 5.504,3.456 z"
     id="text5"
     class="wordmark"
     style="font-style:italic;font-weight:900;font-size:128px;font-family:'Noto Serif Display', Georgia, serif;letter-spacing:-5px;fill:#b83e6c;stroke:#8b2e54;paint-order:stroke fill"
     aria-label="Riquiquísimo" />
  <path
     d="m 313.77979,268 h 4.02099 v -6.42041 h 3.54639 c 4.52197,0 7.11914,-2.70264 7.11914,-6.5918 0,-3.86279 -2.55762,-6.63134 -7.02686,-6.63134 h -7.65966 z m 4.02099,-9.66357 v -6.65772 h 2.88721 c 2.46533,0 3.62549,1.33154 3.62549,3.30908 0,1.97754 -1.16016,3.34864 -3.61231,3.34864 z M 332.89941,268 h 4.44288 l 1.46337,-4.56152 h 6.97413 L 347.2959,268 h 4.46924 l -6.88184,-19.64355 h -5.27344 z m 6.90821,-7.7124 0.56689,-1.7666 c 0.59326,-1.97754 1.17334,-4.31104 1.83252,-7.01368 0.68555,2.67627 1.30518,4.99659 1.93799,7.01368 l 0.59326,1.7666 z m 26.17285,8.00244 c 4.77246,0 7.58057,-2.30713 7.58057,-5.87988 0,-3.2959 -2.55762,-4.9834 -5.8667,-5.74805 l -1.77979,-0.43506 c -1.66113,-0.39551 -3.13769,-1.01514 -3.13769,-2.47851 0,-1.31836 1.16015,-2.26758 3.21679,-2.26758 2.01709,0 3.26953,0.90966 3.41455,2.47851 h 3.88916 c -0.0659,-3.4541 -2.91357,-5.8667 -7.26416,-5.8667 -4.27148,0 -7.38281,2.37305 -7.38281,5.91944 0,2.86084 1.99072,4.53515 5.31299,5.33935 l 2.16211,0.54053 c 2.13574,0.52734 3.38818,1.14697 3.38818,2.4917 0,1.48975 -1.42383,2.50488 -3.57275,2.50488 -2.1753,0 -3.77051,-0.98877 -3.90235,-2.97949 h -3.91552 c 0.11865,4.1792 3.13769,6.38086 7.85742,6.38086 z m 14.49219,-16.59815 h 6.01171 V 268 h 4.03418 v -16.30811 h 5.99854 v -3.33544 H 380.47266 Z M 404.28564,268 h 13.17041 v -3.33545 h -9.14941 v -4.94385 h 8.4375 v -3.28271 h -8.4375 v -4.7461 h 9.12305 v -3.33544 h -13.14405 z m 21.4004,0 h 12.49804 v -3.33545 h -8.47705 v -16.3081 h -4.02099 z m 20.2666,0 h 13.17041 v -3.33545 h -9.14942 v -4.94385 h 8.4375 v -3.28271 h -8.4375 v -4.7461 h 9.12305 v -3.33544 h -13.14404 z m 21.40039,0 h 4.02099 v -7.01367 h 3.16407 L 478.28223,268 h 4.45605 l -4.1792,-7.65967 c 2.24121,-0.9624 3.48047,-2.90039 3.48047,-5.58984 0,-3.86279 -2.55762,-6.39404 -7.02685,-6.39404 h -7.65967 z m 4.02099,-10.27002 v -6.05127 h 2.88721 c 2.46533,0 3.62549,1.09424 3.62549,3.07178 0,1.96435 -1.16016,2.97949 -3.61231,2.97949 z m 22.73194,-9.37353 h -4.021 V 268 h 4.021 z m -3.42774,-1.87208 h 2.76856 l 2.729,-4.10009 h -3.66504 z M 501.53174,268 h 4.44287 l 1.46338,-4.56152 h 6.97412 L 515.92822,268 h 4.46924 l -6.88184,-19.64355 h -5.27343 z m 6.9082,-7.7124 0.5669,-1.7666 c 0.59326,-1.97754 1.17334,-4.31104 1.83252,-7.01368 0.68554,2.67627 1.30517,4.99659 1.93798,7.01368 l 0.59327,1.7666 z M 538.0835,268 h 4.44287 l 1.46338,-4.56152 h 6.97412 L 552.47998,268 h 4.46924 l -6.88184,-19.64355 h -5.27343 z m 6.9082,-7.7124 0.56689,-1.7666 c 0.59327,-1.97754 1.17334,-4.31104 1.83252,-7.01368 0.68555,2.67627 1.30518,4.99659 1.93799,7.01368 l 0.59326,1.7666 z M 564.375,268 h 4.021 v -7.01367 h 3.16406 L 575.3042,268 h 4.45605 l -4.1792,-7.65967 c 2.24122,-0.9624 3.48047,-2.90039 3.48047,-5.58984 0,-3.86279 -2.55761,-6.39404 -7.02685,-6.39404 H 564.375 Z m 4.021,-10.27002 v -6.05127 h 2.8872 c 2.46534,0 3.62549,1.09424 3.62549,3.07178 0,1.96435 -1.16015,2.97949 -3.6123,2.97949 z m 17.91992,-6.03809 h 6.01172 V 268 h 4.03418 v -16.30811 h 5.99853 v -3.33544 H 586.31592 Z M 610.12891,268 h 13.17041 v -3.33545 h -9.14942 v -4.94385 h 8.4375 v -3.28271 h -8.4375 v -4.7461 h 9.12305 v -3.33544 h -13.14404 z m 28.59863,0.29004 c 4.77246,0 7.58057,-2.30713 7.58057,-5.87988 0,-3.2959 -2.55762,-4.9834 -5.8667,-5.74805 l -1.77979,-0.43506 c -1.66113,-0.39551 -3.13769,-1.01514 -3.13769,-2.47851 0,-1.31836 1.16015,-2.26758 3.21679,-2.26758 2.01709,0 3.26953,0.90966 3.41455,2.47851 h 3.88916 c -0.0659,-3.4541 -2.91357,-5.8667 -7.26416,-5.8667 -4.27148,0 -7.38281,2.37305 -7.38281,5.91944 0,2.86084 1.99072,4.53515 5.31299,5.33935 l 2.16211,0.54053 c 2.13574,0.52734 3.38818,1.14697 3.38818,2.4917 0,1.48975 -1.42383,2.50488 -3.57275,2.50488 -2.17529,0 -3.77051,-0.98877 -3.90235,-2.97949 h -3.91552 c 0.11865,4.1792 3.13769,6.38086 7.85742,6.38086 z M 652.66602,268 h 4.44287 l 1.46338,-4.56152 h 6.97412 L 667.0625,268 h 4.46924 l -6.88184,-19.64355 h -5.27344 z m 6.9082,-7.7124 0.56689,-1.7666 c 0.59326,-1.97754 1.17334,-4.31104 1.83252,-7.01368 0.68555,2.67627 1.30518,4.99659 1.93799,7.01368 l 0.59326,1.7666 z M 678.95752,268 h 4.11328 v -9.03076 c 0,-1.16016 -0.11865,-3.26953 -0.26367,-5.64258 1.21289,2.45215 1.93799,3.88916 3.03223,5.65576 L 691.48193,268 h 4.49561 v -19.64355 h -4.11328 v 9.42626 c 0,1.292 0.10547,3.40137 0.25049,5.32618 -0.85694,-2.04346 -1.6875,-3.53321 -2.46534,-4.81202 l -6.20947,-9.94042 h -4.48242 z m 24.4458,0 h 4.44287 l 1.46338,-4.56152 h 6.97412 L 717.7998,268 h 4.46924 l -6.88183,-19.64355 h -5.27344 z m 6.9082,-7.7124 0.5669,-1.7666 c 0.59326,-1.97754 1.17334,-4.31104 1.83252,-7.01368 0.68554,2.67627 1.30517,4.99659 1.93799,7.01368 l 0.59326,1.7666 z M 729.69482,268 h 12.49805 v -3.33545 h -8.47705 v -16.3081 h -4.021 z"
     id="text6"
     class="tagline"
     style="font-weight:700;font-size:27px;font-family:Inter, Lato, Arial, sans-serif;letter-spacing:5px;fill:#4a2b32"
     aria-label="PASTELERÍA ARTESANAL" />
</svg>
