<?xml version="1.0" encoding="UTF-8" standalone="no"?>
<svg
   width="1400"
   height="520"
   viewBox="0 0 1400 520"
   role="img"
   aria-labelledby="title desc"
   version="1.1"
   id="svg4"
   xmlns="http://www.w3.org/2000/svg"
   xmlns:svg="http://www.w3.org/2000/svg">
  <title
     id="title">Riquiquísimo - logo principal</title>
  <desc
     id="desc">Wordmark premium para pastelería artesanal, inspirado en arcos de glaseado y paleta rosa profesional.</desc>
  <defs
     id="defs1">
    <style
       id="style1">
      .wordmark { font-family: 'Noto Serif Display', 'Georgia', serif; font-weight: 900; font-style: italic; letter-spacing: -7px; }
      .tagline { font-family: 'Inter', 'Lato', Arial, sans-serif; font-weight: 700; letter-spacing: 7px; }
    </style>
  </defs>
  <path
     d="M480 122 C565 40, 835 40, 920 122"
     fill="none"
     stroke="#F48CAA"
     stroke-width="24"
     stroke-linecap="round"
     id="path1" />
  <path
     d="M530 155 C600 92, 800 92, 870 155"
     fill="none"
     stroke="#FDE1E6"
     stroke-width="20"
     stroke-linecap="round"
     id="path2" />
  <circle
     cx="440"
     cy="160"
     r="22"
     fill="#F48CAA"
     id="circle2" />
  <circle
     cx="960"
     cy="160"
     r="22"
     fill="#F48CAA"
     id="circle3" />
  <path
     d="m 118.49602,312 0.336,-1.68 h 2.184 q 5.208,0 9.576,-1.68 4.368,-1.848 5.544,-7.56 l 20.16,-95.928 q 1.176,-5.88 1.176,-6.384 0,-3.36 -3.36,-4.2 -3.36,-0.84 -8.736,-0.84 h -2.184 l 0.504,-1.68 h 61.152 q 41.16,0 41.16,27.72 0,8.4 -3.024,14.448 -2.856,5.88 -7.728,9.912 -4.704,3.864 -10.248,6.384 -5.376,2.352 -10.416,3.528 l 14.616,36.288 q 3.192,7.896 5.04,12.264 1.848,4.368 3.696,6.048 2.016,1.68 5.04,1.68 h 1.008 l -0.336,1.68 h -6.048 q -12.6,0 -21.336,-1.512 -8.736,-1.512 -14.28,-6.552 -5.376,-5.04 -8.232,-15.288 l -9.072,-33.936 h -5.544 l -8.904,42.336 q -0.672,3.696 -1.176,5.544 -0.336,1.848 -0.336,2.688 0,3.192 3.528,4.2 3.696,0.84 8.904,0.84 h 5.544 l -0.504,1.68 z m 65.688,-58.968 q 11.928,0 18.648,-8.4 6.72,-8.568 6.72,-26.04 0,-13.776 -3.192,-19.32 -3.024,-5.544 -9.408,-5.544 h -4.536 l -13.272,59.304 z m 103.37594,-45.024 q -5.88,0 -10.08,-2.688 -4.032,-2.856 -4.032,-8.568 0,-5.88 2.52,-9.24 2.52,-3.36 6.552,-4.704 4.032,-1.344 8.4,-1.344 5.712,0 10.08,2.688 4.536,2.52 4.536,8.904 0,7.224 -5.544,11.088 -5.544,3.864 -12.432,3.864 z m -6.048,105.672 q -11.76,0 -18.144,-4.536 -6.384,-4.536 -6.384,-13.776 0,-2.352 0.504,-6.552 0.504,-4.2 2.184,-12.096 l 7.392,-36.624 q 0.672,-2.856 1.008,-5.544 0.504,-2.856 0.504,-5.376 0,-3.024 -1.512,-4.2 -1.344,-1.344 -6.216,-1.344 h -3.696 l 0.336,-1.68 h 46.704 l -14.112,65.688 q -1.176,5.04 -1.848,8.904 -0.504,3.696 -0.336,6.216 0.168,5.712 6.048,5.712 3.864,0 7.728,-3.024 3.864,-3.024 6.552,-6.048 l 1.176,1.512 q -4.2,5.04 -10.416,8.904 -6.048,3.864 -17.472,3.864 z m 81.53599,5.04 q 0.84,-3.864 1.848,-9.24 1.176,-5.544 2.352,-11.088 1.176,-5.544 2.016,-9.912 1.008,-4.536 1.512,-6.552 h -1.008 q -4.032,12.768 -9.072,19.656 -5.04,6.888 -11.088,9.576 -6.048,2.52 -13.44,2.52 -9.576,0 -15.456,-4.368 -5.88,-4.368 -8.568,-11.424 -2.688,-7.056 -2.688,-14.952 0,-7.224 1.848,-15.624 2.016,-8.4 5.88,-16.632 4.032,-8.4 10.416,-15.288 6.384,-6.888 15.288,-10.92 8.904,-4.2 20.496,-4.2 8.4,0 12.768,1.512 4.368,1.344 7.56,3.192 l 18.648,-4.704 h 10.248 l -24.528,116.76 q -0.504,2.184 -1.008,4.368 -0.336,2.352 -0.336,3.696 0,5.376 7.224,5.376 h 8.064 l -0.336,1.848 h -45.36 z m -13.272,-12.096 q 4.368,0 8.4,-4.704 4.032,-4.872 7.224,-13.104 3.36,-8.4 5.544,-18.816 l 9.072,-44.016 q -3.696,-3.192 -9.072,-3.192 -5.712,0 -10.416,4.032 -4.704,4.032 -8.4,11.088 -3.528,6.888 -6.048,15.624 -2.352,8.568 -3.696,17.808 -1.176,9.24 -1.176,17.808 0,10.08 2.352,13.776 2.352,3.696 6.216,3.696 z M 499.352,313.68 q -9.24,0 -14.28,-2.184 -5.04,-2.184 -7.056,-5.712 -1.848,-3.528 -1.848,-7.728 0,-1.008 0.336,-4.032 0.336,-3.192 0.84,-6.216 0.504,-3.192 0.672,-4.032 h -1.344 q -5.208,16.296 -14.784,23.016 -9.408,6.72 -21.84,6.72 -7.56,0 -11.928,-2.52 -4.368,-2.688 -6.216,-6.888 -1.848,-4.368 -1.848,-9.24 0,-4.2 1.008,-9.24 1.008,-5.04 1.68,-9.24 l 7.224,-38.304 q 0.84,-4.2 1.176,-6.384 0.336,-2.184 0.336,-3.528 0,-2.352 -1.008,-3.36 -1.008,-1.176 -5.88,-1.176 h -4.2 l 0.336,-1.68 h 45.528 l -13.104,61.824 q -1.008,4.704 -1.68,8.904 -0.504,4.2 -0.504,7.056 0,6.384 5.712,6.384 4.536,0 8.736,-4.536 4.2,-4.704 7.56,-12.264 3.528,-7.728 5.376,-16.632 l 11.256,-50.736 H 522.2 l -14.616,67.872 q -1.68,7.392 -1.68,12.936 0,6.552 5.544,6.552 3.864,0 8.568,-3.192 4.872,-3.192 7.896,-6.888 l 1.008,1.176 q -4.368,5.04 -11.088,9.24 -6.72,4.032 -18.48,4.032 z m 65.91193,-105.672 q -5.88,0 -10.08,-2.688 -4.032,-2.856 -4.032,-8.568 0,-5.88 2.52,-9.24 2.52,-3.36 6.552,-4.704 4.032,-1.344 8.4,-1.344 5.712,0 10.08,2.688 4.536,2.52 4.536,8.904 0,7.224 -5.544,11.088 -5.544,3.864 -12.432,3.864 z m -6.048,105.672 q -11.76,0 -18.144,-4.536 -6.384,-4.536 -6.384,-13.776 0,-2.352 0.504,-6.552 0.504,-4.2 2.184,-12.096 l 7.392,-36.624 q 0.672,-2.856 1.008,-5.544 0.504,-2.856 0.504,-5.376 0,-3.024 -1.512,-4.2 -1.344,-1.344 -6.216,-1.344 h -3.696 l 0.336,-1.68 h 46.704 l -14.112,65.688 q -1.176,5.04 -1.848,8.904 -0.504,3.696 -0.336,6.216 0.168,5.712 6.048,5.712 3.864,0 7.728,-3.024 3.864,-3.024 6.552,-6.048 l 1.176,1.512 q -4.2,5.04 -10.416,8.904 -6.048,3.864 -17.472,3.864 z m 81.53599,5.04 q 0.84,-3.864 1.848,-9.24 1.176,-5.544 2.352,-11.088 1.176,-5.544 2.016,-9.912 1.008,-4.536 1.512,-6.552 h -1.008 q -4.032,12.768 -9.072,19.656 -5.04,6.888 -11.088,9.576 -6.048,2.52 -13.44,2.52 -9.576,0 -15.456,-4.368 -5.88,-4.368 -8.568,-11.424 -2.688,-7.056 -2.688,-14.952 0,-7.224 1.848,-15.624 2.016,-8.4 5.88,-16.632 4.032,-8.4 10.416,-15.288 6.384,-6.888 15.288,-10.92 8.904,-4.2 20.496,-4.2 8.4,0 12.768,1.512 4.368,1.344 7.56,3.192 l 18.648,-4.704 h 10.248 l -24.528,116.76 q -0.504,2.184 -1.008,4.368 -0.336,2.352 -0.336,3.696 0,5.376 7.224,5.376 h 8.064 l -0.336,1.848 h -45.36 z m -13.272,-12.096 q 4.368,0 8.4,-4.704 4.032,-4.872 7.224,-13.104 3.36,-8.4 5.544,-18.816 l 9.072,-44.016 q -3.696,-3.192 -9.072,-3.192 -5.712,0 -10.416,4.032 -4.704,4.032 -8.4,11.088 -3.528,6.888 -6.048,15.624 -2.352,8.568 -3.696,17.808 -1.176,9.24 -1.176,17.808 0,10.08 2.352,13.776 2.352,3.696 6.216,3.696 z m 149.57606,7.056 q -9.24,0 -14.28,-2.184 -5.04,-2.184 -7.056,-5.712 -1.848,-3.528 -1.848,-7.728 0,-1.008 0.336,-4.032 0.336,-3.192 0.84,-6.216 0.504,-3.192 0.672,-4.032 h -1.344 q -5.208,16.296 -14.784,23.016 -9.408,6.72 -21.84,6.72 -7.56,0 -11.928,-2.52 -4.368,-2.688 -6.216,-6.888 -1.848,-4.368 -1.848,-9.24 0,-4.2 1.008,-9.24 1.008,-5.04 1.68,-9.24 l 7.224,-38.304 q 0.84,-4.2 1.176,-6.384 0.336,-2.184 0.336,-3.528 0,-2.352 -1.008,-3.36 -1.008,-1.176 -5.88,-1.176 h -4.2 l 0.336,-1.68 h 45.528 l -13.104,61.824 q -1.008,4.704 -1.68,8.904 -0.504,4.2 -0.504,7.056 0,6.384 5.712,6.384 4.536,0 8.736,-4.536 4.2,-4.704 7.56,-12.264 3.528,-7.728 5.376,-16.632 l 11.256,-50.736 h 32.592 l -14.616,67.872 q -1.68,7.392 -1.68,12.936 0,6.552 5.544,6.552 3.864,0 8.568,-3.192 4.872,-3.192 7.896,-6.888 l 1.008,1.176 q -4.368,5.04 -11.088,9.24 -6.72,4.032 -18.48,4.032 z m 59.35993,0 q -11.76,0 -18.144,-4.536 -6.384,-4.536 -6.384,-13.776 0,-2.352 0.504,-6.552 0.504,-4.2 2.184,-12.096 l 7.392,-36.624 q 0.672,-2.856 1.008,-5.544 0.504,-2.856 0.504,-5.376 0,-3.024 -1.512,-4.2 -1.344,-1.344 -6.216,-1.344 h -3.696 l 0.336,-1.68 h 46.704 l -14.112,65.688 q -1.176,5.04 -1.848,8.904 -0.504,3.696 -0.336,6.216 0.168,5.712 6.048,5.712 3.864,0 7.728,-3.024 3.864,-3.024 6.552,-6.048 l 1.176,1.512 q -4.2,5.04 -10.416,8.904 -6.048,3.864 -17.472,3.864 z m -6.048,-103.152 q 3.192,-3.192 6.888,-7.728 3.696,-4.704 7.224,-9.408 3.528,-4.872 6.216,-8.4 h 27.048 l -0.504,1.68 q -2.016,1.848 -7.224,5.208 -5.208,3.36 -12.096,7.224 -6.72,3.864 -13.776,7.392 -6.888,3.36 -12.264,5.376 h -1.848 z m 66.08008,103.152 q -16.8,0 -25.872,-4.704 -8.904,-4.872 -8.904,-13.44 0,-8.568 6.048,-12.6 6.048,-4.032 17.304,-4.032 -0.168,2.184 -0.336,4.2 0,1.848 0,3.696 0,9.576 2.352,15.12 2.352,5.544 6.384,7.896 4.2,2.184 9.072,2.184 6.384,0 10.248,-4.032 4.032,-4.032 4.032,-10.584 0,-4.872 -1.512,-8.064 -1.344,-3.192 -5.712,-6.048 -4.368,-3.024 -12.936,-6.72 -12.264,-5.376 -18.648,-12.096 -6.216,-6.72 -6.216,-16.296 0,-13.44 11.088,-20.664 11.256,-7.224 30.912,-7.224 13.608,0 21,2.184 7.392,2.016 10.248,5.544 2.856,3.528 2.856,7.896 0,7.728 -6.552,11.088 -6.384,3.36 -17.808,3.36 0.336,-2.856 0.504,-5.376 0.168,-2.688 0.168,-5.04 0,-9.072 -3.024,-13.44 -2.856,-4.536 -9.408,-4.536 -5.376,0 -9.744,4.032 -4.2,4.032 -4.2,10.92 0,3.696 1.344,6.384 1.344,2.52 5.544,5.208 4.2,2.688 12.768,6.552 9.408,4.2 14.616,8.568 5.208,4.2 7.392,8.904 2.184,4.704 2.184,10.752 0,8.736 -4.872,15.624 -4.872,6.72 -14.952,10.752 -9.912,4.032 -25.368,4.032 z m 90.27212,-105.672 q -5.88,0 -10.08,-2.688 -4.032,-2.856 -4.032,-8.568 0,-5.88 2.52,-9.24 2.52,-3.36 6.552,-4.704 4.032,-1.344 8.4,-1.344 5.712,0 10.07999,2.688 4.536,2.52 4.536,8.904 0,7.224 -5.54399,11.088 -5.544,3.864 -12.432,3.864 z m -6.048,105.672 q -11.76,0 -18.144,-4.536 -6.384,-4.536 -6.384,-13.776 0,-2.352 0.504,-6.552 0.504,-4.2 2.184,-12.096 l 7.392,-36.624 q 0.672,-2.856 1.008,-5.544 0.504,-2.856 0.504,-5.376 0,-3.024 -1.512,-4.2 -1.344,-1.344 -6.216,-1.344 h -3.696 l 0.336,-1.68 h 46.70399 l -14.11199,65.688 q -1.176,5.04 -1.848,8.904 -0.504,3.696 -0.336,6.216 0.168,5.712 6.048,5.712 3.864,0 7.72799,-3.024 3.864,-3.024 6.552,-6.048 l 1.176,1.512 q -4.2,5.04 -10.41599,8.904 -6.048,3.864 -17.472,3.864 z m 162.51199,-0.336 q -11.256,0 -17.472,-4.704 -6.048,-4.704 -6.048,-14.28 0,-3.36 0.504,-7.224 0.672,-4.032 1.848,-9.576 l 5.544,-24.192 q 0.84,-3.36 1.68,-9.072 1.008,-5.712 1.008,-9.576 0,-3.024 -0.672,-5.88 -0.504,-2.856 -3.36,-2.856 -3.696,0 -6.888,3.528 -3.192,3.36 -5.88,8.736 -2.688,5.376 -4.704,11.424 -1.848,6.048 -3.192,11.424 l -4.368,18.984 q -1.176,5.712 -2.184,14.784 -1.008,8.904 -1.68,17.136 h -33.6 q 0.672,-5.712 1.68,-12.432 1.008,-6.72 2.184,-13.272 1.344,-6.552 2.52,-11.592 l 5.208,-21.168 q 1.848,-7.896 2.184,-13.104 0.336,-5.376 0.336,-6.216 0,-2.856 -0.84,-5.04 -0.672,-2.352 -3.024,-2.352 -4.536,0 -8.4,4.872 -3.864,4.704 -6.888,12.264 -3.024,7.56 -5.04,16.128 l -12.6,51.912 h -32.256 l 15.792,-74.928 q 0.336,-2.016 0.84,-4.2 0.504,-2.352 0.504,-4.2 0,-2.856 -1.344,-3.864 -1.344,-1.176 -5.544,-1.176 h -4.2 l 0.168,-1.68 h 44.52 l -2.352,19.992 h 0.504 q 4.2,-9.744 9.24,-14.28 5.04,-4.704 10.752,-6.048 5.712,-1.344 11.592,-1.344 10.584,0 14.784,5.208 4.368,5.04 4.872,13.272 v 4.368 h 0.504 q 3.36,-8.736 7.392,-13.608 4.032,-5.04 9.912,-7.056 6.048,-2.184 14.952,-2.184 7.728,0 11.928,2.856 4.368,2.688 6.216,7.056 1.848,4.2 1.848,8.904 0,4.368 -1.176,9.576 -1.008,5.208 -1.848,9.744 l -5.712,28.056 q -0.84,4.368 -1.68,8.064 -0.84,3.528 -0.84,6.888 0,3.864 1.68,5.544 1.68,1.68 4.368,1.68 3.192,0 6.048,-1.68 3.024,-1.848 5.376,-4.032 2.52,-2.184 3.864,-3.696 l 1.008,1.344 q -4.032,4.872 -11.088,8.904 -6.888,3.864 -18.48,3.864 z m 70.9518,0.336 q -18.48,0 -29.4,-8.904 -10.92,-9.072 -10.92,-27.72 0,-6.384 1.68,-13.944 1.848,-7.56 5.88,-15.12 4.2,-7.56 10.92,-13.776 6.888,-6.384 16.8,-10.08 9.912,-3.864 23.52,-3.864 10.248,0 18.648,3.696 8.568,3.696 13.608,11.592 5.208,7.896 5.208,20.664 0,6.216 -1.68,13.944 -1.68,7.56 -5.544,15.288 -3.864,7.56 -10.416,14.112 -6.384,6.384 -15.96,10.248 -9.408,3.864 -22.344,3.864 z m 1.008,-1.68 q 4.704,0 8.4,-4.872 3.696,-4.872 6.552,-12.768 2.856,-7.896 4.704,-17.136 2.016,-9.408 2.856,-18.48 1.008,-9.072 1.008,-15.96 0,-12.096 -1.68,-16.464 -1.512,-4.368 -6.216,-4.368 -4.704,0 -8.568,4.368 -3.864,4.368 -7.056,11.928 -3.024,7.392 -5.208,16.464 -2.184,9.072 -3.36,18.648 -1.008,9.408 -1.008,17.976 0,11.592 2.352,16.128 2.352,4.536 7.224,4.536 z"
     id="text3"
     class="wordmark"
     style="font-style:italic;font-weight:900;font-size:168px;font-family:'Noto Serif Display', Georgia, serif;letter-spacing:-7px;text-anchor:middle;fill:#b83e6c;stroke:#8b2e54;stroke-width:1.5;paint-order:stroke fill"
     aria-label="Riquiquísimo" />
  <path
     d="M360 342 C440 385, 520 383, 600 345"
     fill="none"
     stroke="#F48CAA"
     stroke-width="12"
     stroke-linecap="round"
     opacity="0.7"
     id="path3" />
  <path
     d="m 417.91162,410 h 5.2124 v -8.32275 h 4.59717 c 5.86182,0 9.22852,-3.50342 9.22852,-8.54493 0,-5.00732 -3.31543,-8.59619 -9.10889,-8.59619 h -9.9292 z m 5.2124,-12.52686 v -8.63037 h 3.74268 c 3.1958,0 4.69971,1.72608 4.69971,4.28955 0,2.56348 -1.50391,4.34082 -4.68262,4.34082 z M 443.21484,410 h 5.75928 l 1.89697,-5.91309 h 9.04053 L 461.87695,410 h 5.79346 l -8.9209,-25.46387 h -6.83594 z m 8.95508,-9.99756 0.73487,-2.29004 c 0.76904,-2.56347 1.52099,-5.58838 2.37548,-9.09179 0.88868,3.46923 1.6919,6.47705 2.51221,9.09179 l 0.76904,2.29004 z m 34.44629,10.37354 c 6.18652,0 9.82666,-2.99073 9.82666,-7.62207 0,-4.27246 -3.31543,-6.45996 -7.60498,-7.45118 l -2.30713,-0.56396 c -2.15332,-0.5127 -4.06738,-1.31592 -4.06738,-3.21289 0,-1.70899 1.50391,-2.93945 4.16992,-2.93945 2.61475,0 4.23828,1.17919 4.42627,3.21289 h 5.0415 c -0.0854,-4.47754 -3.77685,-7.60498 -9.4165,-7.60498 -5.53711,0 -9.57031,3.07617 -9.57031,7.67334 0,3.70849 2.58056,5.8789 6.8872,6.92138 l 2.80274,0.70069 c 2.76855,0.68359 4.39209,1.48681 4.39209,3.22998 0,1.93115 -1.8457,3.24707 -4.63135,3.24707 -2.81982,0 -4.88769,-1.28174 -5.05859,-3.86231 h -5.07569 c 0.15381,5.41748 4.06739,8.27149 10.18555,8.27149 z m 19.30469,-21.51612 h 7.79297 V 410 h 5.22949 v -21.14014 h 7.77588 v -4.32373 H 505.9209 Z M 537.30811,410 h 17.07275 v -4.32373 h -11.86035 v -6.40869 h 10.9375 v -4.25537 h -10.9375 v -6.15235 h 11.82617 v -4.32373 h -17.03857 z m 28.25976,0 h 16.20117 v -4.32373 h -10.98877 v -21.14014 h -5.2124 z m 26.79004,0 h 17.07275 v -4.32373 h -11.86035 v -6.40869 h 10.9375 v -4.25537 h -10.9375 v -6.15235 h 11.82617 v -4.32373 h -17.03857 z m 28.25977,0 h 5.2124 v -9.0918 h 4.10156 L 634.78516,410 h 5.77636 l -5.41748,-9.9292 c 2.90528,-1.24756 4.51172,-3.75976 4.51172,-7.24609 0,-5.00733 -3.31543,-8.28858 -9.10889,-8.28858 h -9.92919 z m 5.2124,-13.31299 v -7.84424 h 3.74267 c 3.1958,0 4.69971,1.41846 4.69971,3.98194 0,2.54638 -1.50391,3.8623 -4.68262,3.8623 z m 29.98584,-12.15088 h -5.2124 V 410 h 5.2124 z m -4.44336,-2.42676 h 3.58887 l 3.53759,-5.31494 h -4.75097 z M 665.96045,410 h 5.75928 l 1.89697,-5.91309 h 9.04053 L 684.62256,410 h 5.79346 l -8.9209,-25.46387 h -6.83594 z m 8.95508,-9.99756 0.73486,-2.29004 c 0.76904,-2.56347 1.521,-5.58838 2.37549,-9.09179 0.88867,3.46923 1.69189,6.47705 2.51221,9.09179 l 0.76904,2.29004 z M 714.37939,410 h 5.75928 l 1.89697,-5.91309 h 9.04053 L 733.0415,410 h 5.79346 l -8.9209,-25.46387 h -6.83594 z m 8.95508,-9.99756 0.73487,-2.29004 c 0.76904,-2.56347 1.52099,-5.58838 2.37548,-9.09179 0.88868,3.46923 1.6919,6.47705 2.51221,9.09179 l 0.76904,2.29004 z M 748.97949,410 h 5.2124 v -9.0918 h 4.10157 L 763.14697,410 h 5.77637 l -5.41748,-9.9292 c 2.90527,-1.24756 4.51172,-3.75976 4.51172,-7.24609 0,-5.00733 -3.31543,-8.28858 -9.10889,-8.28858 h -9.9292 z m 5.2124,-13.31299 v -7.84424 h 3.74268 c 3.1958,0 4.69971,1.41846 4.69971,3.98194 0,2.54638 -1.50391,3.8623 -4.68262,3.8623 z m 23.74805,-7.82715 h 7.79297 V 410 h 5.22949 v -21.14014 h 7.77588 v -4.32373 H 777.93994 Z M 809.32715,410 h 17.07275 v -4.32373 h -11.86035 v -6.40869 h 10.9375 v -4.25537 h -10.9375 v -6.15235 h 11.82617 v -4.32373 h -17.03857 z m 37.59082,0.37598 c 6.18652,0 9.82666,-2.99073 9.82666,-7.62207 0,-4.27246 -3.31543,-6.45996 -7.60498,-7.45118 l -2.30713,-0.56396 c -2.15332,-0.5127 -4.06738,-1.31592 -4.06738,-3.21289 0,-1.70899 1.5039,-2.93945 4.16992,-2.93945 2.61474,0 4.23828,1.17919 4.42627,3.21289 h 5.0415 c -0.0855,-4.47754 -3.77685,-7.60498 -9.4165,-7.60498 -5.53711,0 -9.57031,3.07617 -9.57031,7.67334 0,3.70849 2.58056,5.8789 6.8872,6.92138 l 2.80274,0.70069 c 2.76855,0.68359 4.39209,1.48681 4.39209,3.22998 0,1.93115 -1.84571,3.24707 -4.63135,3.24707 -2.81983,0 -4.8877,-1.28174 -5.05859,-3.86231 h -5.07569 c 0.15381,5.41748 4.06738,8.27149 10.18555,8.27149 z M 865.50488,410 h 5.75928 l 1.89697,-5.91309 h 9.04053 L 884.16699,410 h 5.79346 l -8.9209,-25.46387 h -6.83594 z m 8.95508,-9.99756 0.73486,-2.29004 c 0.76905,-2.56347 1.521,-5.58838 2.37549,-9.09179 0.88867,3.46923 1.6919,6.47705 2.51221,9.09179 l 0.76904,2.29004 z M 900.10498,410 h 5.33203 v -11.70654 c 0,-1.50391 -0.15381,-4.23828 -0.3418,-7.31446 1.57227,3.17871 2.51221,5.04151 3.93067,7.33155 L 916.34033,410 h 5.82764 v -25.46387 h -5.33203 v 12.21924 c 0,1.67481 0.13672,4.40918 0.3247,6.9043 -1.11084,-2.64893 -2.1875,-4.58008 -3.1958,-6.2378 l -8.04931,-12.88574 h -5.81055 z m 32.20752,0 h 5.75928 l 1.89697,-5.91309 h 9.04053 L 950.97461,410 h 5.79346 l -8.9209,-25.46387 h -6.83594 z m 8.95508,-9.99756 0.73486,-2.29004 c 0.76904,-2.56347 1.521,-5.58838 2.37549,-9.09179 0.88867,3.46923 1.69189,6.47705 2.51221,9.09179 l 0.76904,2.29004 z M 966.9126,410 h 16.20117 v -4.32373 H 972.125 v -21.14014 h -5.2124 z"
     id="text4"
     class="tagline"
     style="font-weight:700;font-size:35px;font-family:Inter, Lato, Arial, sans-serif;letter-spacing:7px;text-anchor:middle;fill:#4a2b32"
     aria-label="PASTELERÍA ARTESANAL" />
</svg>
